# xmcd CD database file
#
# Track frame offsets:
#	150
#	21852
#	41647
#	61450
#	79027
#	107607
#	129455
#	147777
#	174425
#	195005
#
# Disc length: 2865 seconds
#
# Revision: 0
# Processed by: cddbd v1.5.2PL0 Copyright (c) Steve Scherf et al.
# Submitted via: CDex 1.70beta3
#
DISCID=790b2f0a
DTITLE=Claude Williamson - Claude Reigns
DYEAR=1983
DGENRE=Jazz
TTITLE0=Claude Reigns
TTITLE1=You'de Be So Nice to Come Home to
TTITLE2=The Shadow of Your Smile
TTITLE3=Scorpio
TTITLE4=Windows
TTITLE5=Straight No Chaser
TTITLE6=Who Can I Turn to
TTITLE7=Charmion
TTITLE8=Matrix
TTITLE9=Someone to Watch Over Me
EXTD=YEAR: 1983
EXTT0=
EXTT1=
EXTT2=
EXTT3=
EXTT4=
EXTT5=
EXTT6=
EXTT7=
EXTT8=
EXTT9=
PLAYORDER=
